<svg width="300" height="72" viewBox="0 0 300 72" fill="none" xmlns="http://www.w3.org/2000/svg">
<rect y="8" width="64" height="64" rx="8" fill="#F4F4F4"/>
<path d="M13.5227 62V15.4545H32.75C36.2348 15.4545 39.2424 16.0833 41.7727 17.3409C44.3182 18.5833 46.2803 20.3712 47.6591 22.7045C49.0379 25.0227 49.7273 27.7727 49.7273 30.9545C49.7273 34.1818 49.0227 36.9242 47.6136 39.1818C46.2045 41.4242 44.2045 43.1364 41.6136 44.3182C39.0227 45.4848 35.9545 46.0682 32.4091 46.0682H20.25V37.2045H30.3182C32.0152 37.2045 33.4318 36.9848 34.5682 36.5455C35.7197 36.0909 36.5909 35.4091 37.1818 34.5C37.7727 33.5758 38.0682 32.3939 38.0682 30.9545C38.0682 29.5151 37.7727 28.3258 37.1818 27.3864C36.5909 26.4318 35.7197 25.7197 34.5682 25.25C33.4167 24.7652 32 24.5227 30.3182 24.5227H24.7727V62H13.5227ZM39.7273 40.7273L51.3182 62H39.0455L27.6818 40.7273H39.7273Z" fill="#4E5CA6"/>
<path d="M13.5227 62H13.0227V62.5H13.5227V62ZM13.5227 15.4545V14.9545H13.0227V15.4545H13.5227ZM41.7727 17.3409L41.5502 17.7887L41.5534 17.7902L41.7727 17.3409ZM47.6591 22.7045L47.2286 22.9589L47.2294 22.9601L47.6591 22.7045ZM47.6136 39.1818L48.037 39.4478L48.0378 39.4466L47.6136 39.1818ZM41.6136 44.3182L41.8189 44.7741L41.8211 44.7731L41.6136 44.3182ZM20.25 46.0682H19.75V46.5682H20.25V46.0682ZM20.25 37.2045V36.7045H19.75V37.2045H20.25ZM34.5682 36.5455L34.7485 37.0118L34.7518 37.0105L34.5682 36.5455ZM37.1818 34.5L37.6011 34.7725L37.6031 34.7693L37.1818 34.5ZM37.1818 27.3864L36.7567 27.6495L36.7586 27.6526L37.1818 27.3864ZM34.5682 25.25L34.3741 25.7108L34.3793 25.713L34.5682 25.25ZM24.7727 24.5227V24.0227H24.2727V24.5227H24.7727ZM24.7727 62V62.5H25.2727V62H24.7727ZM39.7273 40.7273L40.1663 40.488L40.0242 40.2273H39.7273V40.7273ZM51.3182 62V62.5H52.16L51.7572 61.7608L51.3182 62ZM39.0455 62L38.6044 62.2356L38.7457 62.5H39.0455V62ZM27.6818 40.7273V40.2273H26.8479L27.2408 40.9629L27.6818 40.7273ZM14.0227 62V15.4545H13.0227V62H14.0227ZM13.5227 15.9545H32.75V14.9545H13.5227V15.9545ZM32.75 15.9545C36.1753 15.9545 39.1033 16.5725 41.5502 17.7887L41.9953 16.8932C39.3816 15.5941 36.2944 14.9545 32.75 14.9545V15.9545ZM41.5534 17.7902C44.0151 18.9918 45.9019 20.7137 47.2286 22.9589L48.0896 22.4502C46.6587 20.0287 44.6213 18.1749 41.992 16.8916L41.5534 17.7902ZM47.2294 22.9601C48.5545 25.1881 49.2273 27.8464 49.2273 30.9545H50.2273C50.2273 27.6991 49.5213 24.8574 48.0888 22.449L47.2294 22.9601ZM49.2273 30.9545C49.2273 34.1082 48.5394 36.7543 47.1895 38.9171L48.0378 39.4466C49.5061 37.0942 50.2273 34.2554 50.2273 30.9545H49.2273ZM47.1903 38.9158C45.8371 41.0692 43.9152 42.7188 41.4061 43.8633L41.8211 44.7731C44.4939 43.5539 46.572 41.7792 48.037 39.4478L47.1903 38.9158ZM41.4083 43.8623C38.8959 44.9936 35.9008 45.5682 32.4091 45.5682V46.5682C36.0083 46.5682 39.1496 45.9761 41.8189 44.7741L41.4083 43.8623ZM32.4091 45.5682H20.25V46.5682H32.4091V45.5682ZM20.75 46.0682V37.2045H19.75V46.0682H20.75ZM20.25 37.7045H30.3182V36.7045H20.25V37.7045ZM30.3182 37.7045C32.0544 37.7045 33.5368 37.4803 34.7485 37.0118L34.3879 36.0791C33.3268 36.4894 31.976 36.7045 30.3182 36.7045V37.7045ZM34.7518 37.0105C35.9857 36.5234 36.9457 35.7807 37.601 34.7725L36.7626 34.2275C36.2361 35.0375 35.4537 35.6584 34.3846 36.0804L34.7518 37.0105ZM37.6031 34.7693C38.2592 33.7431 38.5682 32.4602 38.5682 30.9545H37.5682C37.5682 32.3277 37.2863 33.4084 36.7606 34.2307L37.6031 34.7693ZM38.5682 30.9545C38.5682 29.4485 38.259 28.1597 37.6051 27.1201L36.7586 27.6526C37.2865 28.4918 37.5682 29.5818 37.5682 30.9545H38.5682ZM37.607 27.1232C36.9544 26.0691 35.9954 25.2921 34.757 24.787L34.3793 25.713C35.444 26.1472 36.2274 26.7946 36.7567 27.6495L37.607 27.1232ZM34.7622 24.7892C33.532 24.2712 32.0449 24.0227 30.3182 24.0227V25.0227C31.9551 25.0227 33.3013 25.2591 34.3742 25.7108L34.7622 24.7892ZM30.3182 24.0227H24.7727V25.0227H30.3182V24.0227ZM24.2727 24.5227V62H25.2727V24.5227H24.2727ZM24.7727 61.5H13.5227V62.5H24.7727V61.5ZM39.2882 40.9665L50.8791 62.2392L51.7572 61.7608L40.1663 40.488L39.2882 40.9665ZM51.3182 61.5H39.0455V62.5H51.3182V61.5ZM39.4865 61.7644L28.1228 40.4917L27.2408 40.9629L38.6044 62.2356L39.4865 61.7644ZM27.6818 41.2273H39.7273V40.2273H27.6818V41.2273Z" fill="#4E5CA6"/>
<path d="M97.1621 30.4219V37.6191C97.1621 38.6647 97.2767 39.2949 97.5059 39.5098C97.7493 39.7103 98.2578 39.8105 99.0312 39.8105H99.9551C102.089 39.8105 103.736 39.2806 104.896 38.2207C106.057 37.1465 106.637 35.7428 106.637 34.0098V33.1289C106.637 31.3529 106.064 29.9492 104.918 28.918C103.786 27.8724 102.304 27.3496 100.471 27.3496H99.1387C98.2363 27.3496 97.6777 27.5 97.4629 27.8008C97.2624 28.0872 97.1621 28.9609 97.1621 30.4219ZM101.029 25.0938C106.229 25.0938 109.573 26.6836 111.062 29.8633C111.464 30.7227 111.664 31.7969 111.664 33.0859C111.664 35.4922 110.583 37.5905 108.42 39.3809C107.217 40.3835 106.615 41.2214 106.615 41.8945C106.615 42.0951 107.324 43.3984 108.742 45.8047C110.16 48.1966 111.191 49.8008 111.836 50.6172C112.495 51.4336 113.311 52.0423 114.285 52.4434C115.259 52.8301 115.746 53.1953 115.746 53.5391C115.746 54.556 114.636 55.0645 112.416 55.0645C110.798 55.0645 109.587 54.6706 108.785 53.8828C108.227 53.3385 107.109 51.5697 105.434 48.5762C103.758 45.5827 102.812 43.9499 102.598 43.6777C101.839 42.7181 100.686 42.2383 99.1387 42.2383C98.4798 42.2383 98.0286 42.5391 97.7852 43.1406C97.5417 43.7279 97.4199 45.0527 97.4199 47.1152C97.4199 49.1777 97.556 50.5456 97.8281 51.2188C98.1146 51.8919 98.5443 52.5365 99.1172 53.1523C99.6901 53.7539 99.9766 54.1048 99.9766 54.2051C99.9766 54.6921 99.0671 54.9355 97.248 54.9355L96.5176 54.9141L95.8086 54.8711C95.4935 54.8568 95.0065 54.8496 94.3477 54.8496C90.9818 54.8496 89.2988 54.5632 89.2988 53.9902C89.2988 53.4173 89.5352 52.9876 90.0078 52.7012C91.2109 51.9564 91.8555 51.5052 91.9414 51.3477C92.2708 50.7461 92.4355 49.0918 92.4355 46.3848L92.4785 44.8809L92.5 43.377C92.5 42.8757 92.5 42.3743 92.5 41.873L92.457 39.6387C92.457 33.8092 92.3138 30.4004 92.0273 29.4121C91.7552 28.4238 91.2539 27.7148 90.5234 27.2852C89.8073 26.8411 89.4492 26.4544 89.4492 26.125C89.4492 25.5521 90.5951 25.2656 92.8867 25.2656L93.6172 25.2441C94.1185 25.2298 94.6126 25.2227 95.0996 25.2227L99.5254 25.0938H101.029ZM140.217 52.6582C140.847 53.1452 141.162 53.4961 141.162 53.7109C141.162 53.9115 141.055 54.1048 140.84 54.291C140.224 54.8496 138.906 55.1289 136.887 55.1289C136.228 55.1289 135.712 55.0215 135.34 54.8066C134.982 54.5775 134.66 54.1693 134.373 53.582C134.101 52.9948 133.872 52.7012 133.686 52.7012C133.499 52.7155 133.084 52.9518 132.439 53.4102C130.635 54.7135 128.909 55.3652 127.262 55.3652C127.247 55.3652 127.226 55.3652 127.197 55.3652H126.553C124.189 55.3652 122.478 54.3626 121.418 52.3574C120.874 51.3118 120.594 48.7552 120.58 44.6875C120.58 40.6055 120.516 38.3639 120.387 37.9629C120.258 37.5475 119.799 37.1608 119.012 36.8027C118.238 36.4303 117.852 36.1439 117.852 35.9434C117.852 35.4134 118.102 35.0697 118.604 34.9121C119.721 34.554 121.146 34.375 122.879 34.375C123.882 34.375 124.519 34.7832 124.791 35.5996C125.149 36.6452 125.328 39.1445 125.328 43.0977C125.328 47.0365 125.5 49.4284 125.844 50.2734C126.431 51.7201 127.498 52.4434 129.045 52.4434C129.847 52.4434 130.642 52.2357 131.43 51.8203C132.232 51.4049 132.855 50.8464 133.299 50.1445C133.743 49.4427 133.965 47.5163 133.965 44.3652C133.965 41.1999 133.857 39.209 133.643 38.3926C133.442 37.5762 133.127 36.9388 132.697 36.4805C132.268 36.0078 132.053 35.6354 132.053 35.3633C132.053 34.7331 133.736 34.418 137.102 34.418C137.803 34.418 138.262 34.5755 138.477 34.8906C138.691 35.1914 138.799 35.75 138.799 36.5664L138.734 37.834L138.627 43.5488C138.627 47.2728 138.734 49.6003 138.949 50.5312C139.164 51.4479 139.587 52.1569 140.217 52.6582ZM158.65 45.3535C159.782 46.4277 160.348 47.7884 160.348 49.4355C160.348 51.0684 159.674 52.472 158.328 53.6465C156.982 54.8066 155.12 55.3867 152.742 55.3867H152.162C149.455 55.3867 147.393 55.0501 145.975 54.377C145.187 54.0046 144.793 53.1738 144.793 51.8848V51.3477C144.793 49.7005 145.101 48.877 145.717 48.877C146.232 48.877 146.841 49.3639 147.543 50.3379C148.245 51.2975 148.832 51.9421 149.305 52.2715C150.221 52.9017 151.296 53.2168 152.527 53.2168C153.773 53.2168 154.69 52.959 155.277 52.4434C155.865 51.9134 156.158 51.2188 156.158 50.3594C156.158 49.5 155.657 48.7051 154.654 47.9746C154.124 47.5879 152.885 46.9792 150.938 46.1484C149.004 45.3177 147.557 44.4512 146.598 43.5488C145.638 42.6322 145.158 41.3431 145.158 39.6816C145.158 38.0202 145.853 36.6738 147.242 35.6426C148.632 34.597 150.343 34.0742 152.377 34.0742H152.957C155.621 34.0742 157.49 34.3893 158.564 35.0195C159.123 35.349 159.402 36.2656 159.402 37.7695C159.402 39.2734 159.044 40.0254 158.328 40.0254C157.927 40.0254 157.376 39.5814 156.674 38.6934C155.986 37.791 155.356 37.1536 154.783 36.7812C154.21 36.3945 153.415 36.2012 152.398 36.2012C151.396 36.2012 150.601 36.4303 150.014 36.8887C149.426 37.347 149.133 38.013 149.133 38.8867C149.133 39.7461 149.67 40.5195 150.744 41.207C151.016 41.3932 152.205 41.9447 154.311 42.8613C156.416 43.778 157.863 44.6087 158.65 45.3535ZM163.914 54.248C163.914 53.9473 164.236 53.5605 164.881 53.0879C165.54 52.6152 165.984 51.8776 166.213 50.875C166.442 49.8581 166.557 46.0195 166.557 39.3594C166.557 32.6992 166.478 28.9251 166.32 28.0371C166.177 27.1491 165.812 26.5117 165.225 26.125C164.279 25.5091 163.807 25.1296 163.807 24.9863V24.7285C163.807 24.485 164.014 24.2702 164.43 24.084C165.719 23.5254 167.438 23.2461 169.586 23.2461H170.016C170.746 23.2461 171.169 23.7402 171.283 24.7285C171.298 24.8574 171.305 25.9388 171.305 27.9727V32.5918L171.283 33.4727V34.8262L171.262 35.707C171.262 35.707 171.262 37.9772 171.262 42.5176C171.262 46.7572 171.326 49.3854 171.455 50.4023C171.598 51.4049 171.921 52.1354 172.422 52.5938C172.479 52.6367 172.78 52.8229 173.324 53.1523C173.868 53.4818 174.141 53.8184 174.141 54.1621C174.141 54.6634 173.253 54.9141 171.477 54.9141L170.596 54.957H169.715L166.191 55.0215H165.74C164.523 55.0215 163.914 54.7637 163.914 54.248ZM188.814 45.0527H188.449C186.573 45.0527 185.005 45.4753 183.744 46.3203C182.498 47.151 181.875 48.1895 181.875 49.4355V49.8652C181.875 50.5957 182.097 51.2546 182.541 51.8418C182.999 52.4147 183.587 52.7012 184.303 52.7012L184.561 52.7441H185.205C186.695 52.7441 187.912 52.1354 188.857 50.918C189.273 50.388 189.48 49.2995 189.48 47.6523C189.48 47.5234 189.48 47.3945 189.48 47.2656L189.502 46.75V46.2344C189.502 45.4466 189.273 45.0527 188.814 45.0527ZM178.373 38.1133C178.373 37.0534 179.211 36.1081 180.887 35.2773C182.577 34.4323 184.324 34.0098 186.129 34.0098C186.186 34.0098 186.243 34.0098 186.301 34.0098C188.02 34.0098 189.395 34.2174 190.426 34.6328C192.517 35.4635 193.713 37.2253 194.014 39.918C194.042 40.1901 194.057 41.9948 194.057 45.332C194.057 48.6549 194.143 50.6029 194.314 51.1758C194.501 51.7487 194.988 52.1712 195.775 52.4434C196.577 52.7155 196.979 52.9733 196.979 53.2168C196.979 53.7324 196.721 54.1263 196.205 54.3984C195.174 54.9427 194.157 55.2148 193.154 55.2148C192.166 55.2148 191.428 54.9857 190.941 54.5273C190.068 53.7109 189.602 53.3027 189.545 53.3027C189.488 53.3027 188.678 53.668 187.117 54.3984C185.556 55.1146 184.188 55.4727 183.014 55.4727C181.252 55.4727 179.87 54.9857 178.867 54.0117C177.865 53.0378 177.363 51.8561 177.363 50.4668V49.9297C177.363 48.4401 178.008 47.1296 179.297 45.998C180.586 44.8665 182.906 43.9857 186.258 43.3555C187.475 43.1263 188.242 42.9115 188.557 42.7109C189.187 42.3099 189.502 41.4935 189.502 40.2617C189.502 39.0299 189.173 38.0846 188.514 37.4258C187.855 36.7669 186.974 36.4375 185.871 36.4375C184.768 36.4375 183.701 37.082 182.67 38.3711C181.653 39.6458 180.722 40.2832 179.877 40.2832C178.874 40.2832 178.373 39.5599 178.373 38.1133ZM203.402 54.8281C201.383 54.8281 200.373 54.5417 200.373 53.9688C200.373 53.4961 200.638 53.1094 201.168 52.8086C202.128 52.2643 202.686 51.7773 202.844 51.3477C203.001 50.9036 203.08 48.834 203.08 45.1387C203.08 41.429 202.965 39.2591 202.736 38.6289C202.521 37.9844 202.12 37.4544 201.533 37.0391C200.946 36.6237 200.652 36.2871 200.652 36.0293C200.652 35.7715 200.846 35.528 201.232 35.2988C202.135 34.7689 203.567 34.5039 205.529 34.5039C206.117 34.5039 206.575 34.7044 206.904 35.1055C207.019 35.2487 207.176 35.5638 207.377 36.0508C207.592 36.5234 207.735 36.7598 207.807 36.7598C208.079 36.7454 208.501 36.5521 209.074 36.1797C211.051 34.8477 212.841 34.1816 214.445 34.1816H214.488H215.176C216.336 34.1816 217.382 34.4681 218.312 35.041C219.243 35.6139 219.96 36.4733 220.461 37.6191C220.977 38.765 221.234 41.2643 221.234 45.1172C221.234 48.9557 221.313 51.1042 221.471 51.5625C221.643 52.0065 222.108 52.4219 222.867 52.8086C223.641 53.1953 224.027 53.5749 224.027 53.9473C224.027 54.5918 221.993 54.9141 217.926 54.9141H217.281C215.992 54.9141 215.348 54.6061 215.348 53.9902C215.348 53.8613 215.505 53.5534 215.82 53.0664C216.135 52.5651 216.35 52.0137 216.465 51.4121C216.579 50.8105 216.637 48.834 216.637 45.4824C216.637 42.1165 216.429 39.9538 216.014 38.9941C215.441 37.6764 214.488 37.0176 213.156 37.0176C212.182 37.0176 211.237 37.2467 210.32 37.7051C209.418 38.1491 208.759 38.7865 208.344 39.6172C207.943 40.4336 207.742 42.403 207.742 45.5254C207.742 48.6335 207.828 50.5169 208 51.1758C208.172 51.8203 208.38 52.3431 208.623 52.7441L209.418 54.0332C209.418 54.5918 208.294 54.8711 206.045 54.8711L204.734 54.8281H203.402Z" fill="white"/>
</svg>
