<svg width="120" height="48" viewBox="0 0 120 48" fill="none" xmlns="http://www.w3.org/2000/svg">
<g clip-path="url(#clip0_207:5656)">
<path fill-rule="evenodd" clip-rule="evenodd" d="M22.1818 0.727273C17.611 0.727273 13.3268 1.94912 9.6366 4.08377C9.46276 4.18433 9.24031 4.12492 9.13975 3.95108C9.03919 3.77724 9.09859 3.5548 9.27243 3.45424C13.0703 1.25728 17.4798 0 22.1818 0C26.8838 0 31.2933 1.25728 35.0911 3.45424C35.265 3.5548 35.3244 3.77724 35.2238 3.95108C35.1233 4.12492 34.9008 4.18433 34.727 4.08377C31.0368 1.94912 26.7525 0.727273 22.1818 0.727273Z" fill="#747474"/>
<path fill-rule="evenodd" clip-rule="evenodd" d="M4.40869 13.1551C4.57407 13.2691 4.61577 13.4955 4.50183 13.6609C2.12109 17.1164 0.727273 21.304 0.727273 25.8183C0.727273 37.6673 10.3328 47.2728 22.1818 47.2728C34.0308 47.2728 43.6364 37.6673 43.6364 25.8183C43.6364 21.304 42.2425 17.1164 39.8618 13.6609C39.7479 13.4955 39.7896 13.2691 39.9549 13.1551C40.1203 13.0412 40.3468 13.0829 40.4607 13.2483C42.9224 16.8212 44.3636 21.152 44.3636 25.8183C44.3636 38.069 34.4325 48.0001 22.1818 48.0001C9.93114 48.0001 0 38.069 0 25.8183C0 21.152 1.44126 16.8212 3.90294 13.2483C4.01688 13.0829 4.24331 13.0412 4.40869 13.1551Z" fill="#747474"/>
<path fill-rule="evenodd" clip-rule="evenodd" d="M22.182 4.36363C18.2736 4.36363 14.6103 5.40839 11.455 7.23364C11.2811 7.3342 11.0587 7.2748 10.9581 7.10096C10.8575 6.92711 10.917 6.70467 11.0908 6.60411C14.3538 4.71655 18.1423 3.63635 22.182 3.63635C26.2216 3.63635 30.0101 4.71655 33.2731 6.60411C33.447 6.70467 33.5064 6.92711 33.4058 7.10096C33.3053 7.2748 33.0828 7.3342 32.909 7.23364C29.7537 5.40839 26.0904 4.36363 22.182 4.36363Z" fill="#747474"/>
<path fill-rule="evenodd" clip-rule="evenodd" d="M22.1817 8.00001C18.9356 8.00001 15.8933 8.86769 13.2728 10.3835C13.099 10.4841 12.8765 10.4247 12.776 10.2509C12.6754 10.077 12.7348 9.85457 12.9087 9.75401C15.6368 8.17585 18.8043 7.27274 22.1817 7.27274C25.559 7.27274 28.7265 8.17585 31.4547 9.75401C31.6285 9.85457 31.6879 10.077 31.5873 10.2509C31.4868 10.4247 31.2643 10.4841 31.0905 10.3835C28.47 8.86769 25.4277 8.00001 22.1817 8.00001Z" fill="#747474"/>
<path fill-rule="evenodd" clip-rule="evenodd" d="M31.9455 22.408C33.4861 22.8007 34.3716 23.7264 34.6018 25.1851C34.8705 26.6437 34.3538 27.7671 33.0516 28.5554C31.1873 29.7122 28.6155 29.372 25.3361 27.5349C26.6886 28.3638 27.8883 29.4326 28.878 30.6929C30.2623 32.6228 30.4159 34.3367 29.3385 35.8346C28.6555 36.9466 27.3355 37.4615 26.1024 37.0969C24.3014 36.7042 23.1267 35.1474 22.5785 32.4264L22.2413 28.8415L21.8301 32.4264C21.6367 33.6287 21.1612 34.765 20.4443 35.7378C19.2875 37.1712 17.9772 37.592 16.5133 37.0001C15.2682 36.543 14.4363 35.3368 14.4326 33.9832C14.3559 31.6242 16.109 29.3801 19.6919 27.251C16.797 28.9481 14.3902 29.54 12.4712 29.0266C10.9717 28.5554 10.1055 27.6101 9.87247 26.1907C9.63946 24.7713 10.1589 23.6675 11.4309 22.8793C13.3937 21.6562 16.1473 22.0896 19.6919 24.1794C17.1507 22.6871 15.5141 21.0531 14.7822 19.2775C14.0502 17.5019 14.3011 16.0825 15.5347 15.0194C16.515 14.0548 18.0148 13.9068 19.1573 14.6617C21.1996 15.7641 22.2207 18.4444 22.2207 22.7025C22.2207 19.3925 22.8759 17.0082 24.1862 15.5495C25.3814 14.2087 26.6918 13.8539 28.1173 14.485C29.3413 14.943 30.1246 16.171 30.0417 17.5019C30.1184 19.8666 28.3654 22.0938 24.7825 24.1836C27.6389 22.5258 30.0266 21.9339 31.9455 22.408ZM22.2374 27.3682C22.6643 27.3672 23.0719 27.186 23.364 26.8675V26.8717C23.6708 26.5706 23.8432 26.1538 23.841 25.7188C23.8437 25.2897 23.6654 24.8802 23.3517 24.5954C23.0518 24.2921 22.6467 24.1227 22.225 24.1241C21.369 24.1354 20.6777 24.8428 20.6666 25.7188C20.6652 26.1503 20.8308 26.5648 21.1271 26.8717C21.4091 27.1944 21.8144 27.3756 22.2374 27.3682Z" fill="#9E4FED"/>
<path d="M60.2707 16.7273H57.9122L57.3153 15.1255H53.1516L52.5401 16.7273H50.1816L53.9377 7.27274H56.5292L60.2707 16.7273ZM56.7475 13.3537L55.2334 9.28555L53.7194 13.3537H56.7475Z" fill="#464646"/>
<path d="M63.2347 16.7273H61.1674V7.27274H65.7097C66.7288 7.27274 67.5246 7.56568 68.0973 8.15157C68.6796 8.72801 68.9708 9.45092 68.9708 10.3203C68.9708 11.1802 68.6796 11.9031 68.0973 12.489C67.5149 13.0749 66.7191 13.3679 65.7097 13.3679H63.2347V16.7273ZM65.4331 11.596C65.8504 11.596 66.1901 11.4826 66.4522 11.2558C66.7239 11.0196 66.8598 10.7077 66.8598 10.3203C66.8598 9.93286 66.7239 9.62574 66.4522 9.39895C66.1901 9.1627 65.8504 9.04458 65.4331 9.04458H63.2347V11.596H65.4331Z" fill="#464646"/>
<path d="M78.9874 16.7273H76.9055V12.7584H72.3196V16.7273H70.2523V7.27274H72.3196V10.9865H76.9055V7.27274H78.9874V16.7273Z" fill="#464646"/>
<path d="M82.8955 16.7273H80.901V7.27274H82.9683V13.382L87.4669 7.27274H89.5925V16.7273H87.5252V10.3912L82.8955 16.7273Z" fill="#464646"/>
<path d="M99.8201 16.7273H97.2723L94.3315 12.9426L93.5745 13.8215V16.7273H91.5071V7.27274H93.5745V11.4968L97.0103 7.27274H99.558L95.7 11.7094L99.8201 16.7273Z" fill="#464646"/>
<path d="M109.818 16.7273H107.46L106.863 15.1255H102.699L102.087 16.7273H99.729L103.485 7.27274H106.076L109.818 16.7273ZM106.295 13.3537L104.781 9.28555L103.267 13.3537H106.295Z" fill="#464646"/>
<path d="M51.3738 30.599C51.1342 30.599 50.9121 30.5557 50.7076 30.4692C50.5031 30.3828 50.3453 30.2732 50.2342 30.1406L50.541 29.5699C50.7923 29.8293 51.0582 29.959 51.3387 29.959C51.5608 29.959 51.7361 29.9014 51.8647 29.7861C51.9991 29.6708 52.151 29.4546 52.3205 29.1375L52.4257 28.9386L50.1816 24.7273H51.0144L52.8464 28.2987L54.6785 24.7273H55.5112L52.9604 29.4748C52.7559 29.8553 52.5367 30.1378 52.303 30.3222C52.0692 30.5067 51.7595 30.599 51.3738 30.599Z" fill="#464646"/>
<path d="M59.4031 30.4952H58.7457V26.8892H56.5367V30.4952H55.8792V26.3184H59.4031V30.4952Z" fill="#464646"/>
<path d="M62.8021 30.599C62.206 30.599 61.7297 30.3539 61.3733 29.8639V32.0863H60.7158V26.3184H61.3733V26.941C61.531 26.722 61.7356 26.5461 61.9869 26.4135C62.2381 26.2809 62.5099 26.2146 62.8021 26.2146C63.3631 26.2146 63.816 26.4135 64.1608 26.8113C64.5114 27.2034 64.6867 27.7337 64.6867 28.4025C64.6867 29.0712 64.5114 29.6045 64.1608 30.0023C63.816 30.4001 63.3631 30.599 62.8021 30.599ZM62.6355 30.0196C63.0504 30.0196 63.3806 29.8697 63.6261 29.5699C63.8715 29.2644 63.9942 28.8752 63.9942 28.4025C63.9942 27.9297 63.8715 27.5435 63.6261 27.2437C63.3806 26.9439 63.0504 26.794 62.6355 26.794C62.3842 26.794 62.1388 26.8603 61.8992 26.9929C61.6655 27.1198 61.4901 27.2754 61.3733 27.4599V29.3451C61.4901 29.5353 61.6655 29.6967 61.8992 29.8293C62.1388 29.9562 62.3842 30.0196 62.6355 30.0196Z" fill="#464646"/>
<path d="M69.0369 30.4952H68.3794V30.0196C68.023 30.4058 67.5555 30.599 66.9769 30.599C66.5854 30.599 66.2406 30.475 65.9425 30.2271C65.6445 29.9792 65.4955 29.642 65.4955 29.2154C65.4955 28.7772 65.6416 28.44 65.9338 28.2036C66.2318 27.9615 66.5795 27.8404 66.9769 27.8404C67.5788 27.8404 68.0463 28.0306 68.3794 28.4111V27.6588C68.3794 27.3821 68.2801 27.1659 68.0814 27.0102C67.8827 26.8546 67.6256 26.7767 67.31 26.7767C66.8133 26.7767 66.3808 26.9699 66.0127 27.3561L65.7059 26.9065C66.1559 26.4452 66.7198 26.2146 67.3977 26.2146C67.8827 26.2146 68.2772 26.3299 68.581 26.5605C68.8849 26.7911 69.0369 27.1457 69.0369 27.6242V30.4952ZM67.2136 30.132C67.7395 30.132 68.1281 29.959 68.3794 29.6131V28.8262C68.1281 28.4803 67.7395 28.3074 67.2136 28.3074C66.9097 28.3074 66.6584 28.3938 66.4597 28.5668C66.2669 28.734 66.1705 28.953 66.1705 29.224C66.1705 29.4892 66.2669 29.7083 66.4597 29.8812C66.6584 30.0484 66.9097 30.132 67.2136 30.132Z" fill="#464646"/>
<path d="M72.7303 30.4952H70.3547V26.3184H72.6864C73.0546 26.3184 73.3439 26.4164 73.5542 26.6124C73.7705 26.8084 73.8786 27.0679 73.8786 27.3907C73.8786 27.6271 73.8114 27.8317 73.677 28.0047C73.5484 28.1719 73.3877 28.2843 73.1948 28.3419C73.4111 28.3938 73.5922 28.5178 73.7383 28.7138C73.8903 28.9098 73.9662 29.126 73.9662 29.3624C73.9662 29.7025 73.8552 29.9763 73.6331 30.1839C73.4169 30.3914 73.116 30.4952 72.7303 30.4952ZM72.5988 29.9245C72.8092 29.9245 72.9757 29.8668 73.0984 29.7515C73.2211 29.6362 73.2825 29.4805 73.2825 29.2845C73.2825 29.1058 73.2211 28.953 73.0984 28.8262C72.9757 28.6994 72.8092 28.636 72.5988 28.636H71.0122V29.9245H72.5988ZM72.5725 28.0652C72.7712 28.0652 72.926 28.0133 73.0371 27.9096C73.1481 27.8 73.2036 27.6588 73.2036 27.4858C73.2036 27.3014 73.1481 27.1572 73.0371 27.0535C72.926 26.9439 72.7712 26.8892 72.5725 26.8892H71.0122V28.0652H72.5725Z" fill="#464646"/>
<path d="M74.7088 30.599V30.0628C74.9075 30.0628 75.0711 29.9331 75.1997 29.6737C75.3282 29.4142 75.4334 28.9819 75.5152 28.3765L75.787 26.3184H78.7323V30.4952H78.0748V26.8892H76.3655L76.1727 28.4544C76.0792 29.2211 75.9155 29.7717 75.6818 30.106C75.448 30.4347 75.1237 30.599 74.7088 30.599Z" fill="#464646"/>
<path d="M81.956 30.599C81.3248 30.599 80.8076 30.3972 80.4044 29.9936C80.0012 29.5843 79.7996 29.0539 79.7996 28.4025C79.7996 27.7914 79.9983 27.2754 80.3956 26.8546C80.793 26.428 81.2898 26.2146 81.8858 26.2146C82.5111 26.2146 83.0049 26.428 83.3672 26.8546C83.7354 27.2754 83.9195 27.8087 83.9195 28.4544V28.6187H80.4921C80.5213 29.028 80.6732 29.371 80.9479 29.6477C81.2226 29.9245 81.579 30.0628 82.0173 30.0628C82.5433 30.0628 82.9786 29.887 83.3234 29.5353L83.639 29.959C83.2065 30.3857 82.6455 30.599 81.956 30.599ZM83.2708 28.1431C83.265 27.7856 83.1423 27.4657 82.9027 27.1832C82.6631 26.8949 82.3212 26.7508 81.8771 26.7508C81.4563 26.7508 81.1232 26.892 80.8778 27.1745C80.6382 27.457 80.5096 27.7799 80.4921 28.1431H83.2708Z" fill="#464646"/>
<path d="M85.6417 30.4952H84.9843V26.3184H85.6417V28.0566H87.8507V26.3184H88.5082V30.4952H87.8507V28.6273H85.6417V30.4952Z" fill="#464646"/>
<path d="M90.452 30.4952H89.8209V26.3184H90.4783V29.5094L92.6961 26.3184H93.3447V30.4952H92.6873V27.2437L90.452 30.4952Z" fill="#464646"/>
<path d="M96.5684 30.599C95.9373 30.599 95.4201 30.3972 95.0169 29.9936C94.6136 29.5843 94.412 29.0539 94.412 28.4025C94.412 27.7914 94.6107 27.2754 95.0081 26.8546C95.4055 26.428 95.9022 26.2146 96.4983 26.2146C97.1236 26.2146 97.6174 26.428 97.9797 26.8546C98.3479 27.2754 98.5319 27.8087 98.5319 28.4544V28.6187H95.1045C95.1337 29.028 95.2857 29.371 95.5603 29.6477C95.835 29.9245 96.1915 30.0628 96.6298 30.0628C97.1557 30.0628 97.5911 29.887 97.9359 29.5353L98.2514 29.959C97.819 30.3857 97.258 30.599 96.5684 30.599ZM97.8833 28.1431C97.8774 27.7856 97.7547 27.4657 97.5151 27.1832C97.2755 26.8949 96.9337 26.7508 96.4895 26.7508C96.0688 26.7508 95.7357 26.892 95.4902 27.1745C95.2506 27.457 95.1221 27.7799 95.1045 28.1431H97.8833Z" fill="#464646"/>
<path d="M52.6273 39.9672C52.002 39.9672 51.4936 39.7596 51.102 39.3445C50.7105 38.9237 50.5147 38.3991 50.5147 37.7707C50.5147 37.1423 50.7105 36.6205 51.102 36.2055C51.4936 35.7904 52.002 35.5828 52.6273 35.5828C53.2818 35.5828 53.799 35.825 54.1788 36.3092L53.7405 36.707C53.4717 36.3438 53.1123 36.1622 52.6624 36.1622C52.2182 36.1622 51.8617 36.3121 51.5929 36.6119C51.33 36.9117 51.1985 37.2979 51.1985 37.7707C51.1985 38.2434 51.33 38.6325 51.5929 38.9381C51.8617 39.2379 52.2182 39.3878 52.6624 39.3878C53.1065 39.3878 53.4659 39.2062 53.7405 38.843L54.1788 39.2408C53.799 39.725 53.2818 39.9672 52.6273 39.9672Z" fill="#464646"/>
<path d="M58.405 39.8634H57.7475V39.3878C57.391 39.774 56.9235 39.9672 56.345 39.9672C55.9535 39.9672 55.6087 39.8432 55.3106 39.5953C55.0126 39.3474 54.8636 39.0102 54.8636 38.5835C54.8636 38.1454 55.0097 37.8081 55.3019 37.5718C55.5999 37.3296 55.9476 37.2086 56.345 37.2086C56.9469 37.2086 57.4144 37.3988 57.7475 37.7793V37.027C57.7475 36.7503 57.6482 36.5341 57.4495 36.3784C57.2508 36.2228 56.9937 36.1449 56.6781 36.1449C56.1814 36.1449 55.7489 36.3381 55.3808 36.7243L55.074 36.2746C55.5239 35.8134 56.0879 35.5828 56.7658 35.5828C57.2508 35.5828 57.6453 35.6981 57.9491 35.9287C58.253 36.1593 58.405 36.5139 58.405 36.9924V39.8634ZM56.5817 39.5002C57.1076 39.5002 57.4962 39.3272 57.7475 38.9813V38.1944C57.4962 37.8485 57.1076 37.6756 56.5817 37.6756C56.2778 37.6756 56.0265 37.762 55.8278 37.935C55.635 38.1022 55.5385 38.3212 55.5385 38.5922C55.5385 38.8574 55.635 39.0765 55.8278 39.2494C56.0265 39.4166 56.2778 39.5002 56.5817 39.5002Z" fill="#464646"/>
<path d="M59.2232 39.9672V39.431C59.4219 39.431 59.5855 39.3013 59.7141 39.0419C59.8426 38.7824 59.9478 38.3501 60.0296 37.7447L60.3014 35.6866H63.2467V39.8634H62.5892V36.2573H60.8799L60.6871 37.8226C60.5936 38.5893 60.4299 39.1399 60.1962 39.4742C59.9624 39.8029 59.6381 39.9672 59.2232 39.9672Z" fill="#464646"/>
<path d="M67.9255 39.3359C67.5456 39.7567 67.0401 39.9672 66.409 39.9672C65.7778 39.9672 65.2694 39.7567 64.8837 39.3359C64.5039 38.915 64.314 38.3933 64.314 37.7707C64.314 37.148 64.5039 36.6292 64.8837 36.2141C65.2694 35.7933 65.7778 35.5828 66.409 35.5828C67.0401 35.5828 67.5456 35.7933 67.9255 36.2141C68.3112 36.6292 68.504 37.148 68.504 37.7707C68.504 38.3933 68.3112 38.915 67.9255 39.3359ZM65.3746 38.9208C65.6318 39.2321 65.9765 39.3878 66.409 39.3878C66.8414 39.3878 67.1833 39.2321 67.4346 38.9208C67.6859 38.6037 67.8115 38.2203 67.8115 37.7707C67.8115 37.321 67.6859 36.9405 67.4346 36.6292C67.1833 36.3179 66.8414 36.1622 66.409 36.1622C65.9765 36.1622 65.6318 36.3208 65.3746 36.6378C65.1233 36.9492 64.9977 37.3268 64.9977 37.7707C64.9977 38.2203 65.1233 38.6037 65.3746 38.9208Z" fill="#464646"/>
<path d="M70.2332 39.8634H69.5758V35.6866H70.2332V37.4248H72.4422V35.6866H73.0996V39.8634H72.4422V37.9955H70.2332V39.8634Z" fill="#464646"/>
<path d="M77.7784 39.3359C77.3985 39.7567 76.893 39.9672 76.2619 39.9672C75.6308 39.9672 75.1224 39.7567 74.7367 39.3359C74.3568 38.915 74.1669 38.3933 74.1669 37.7707C74.1669 37.148 74.3568 36.6292 74.7367 36.2141C75.1224 35.7933 75.6308 35.5828 76.2619 35.5828C76.893 35.5828 77.3985 35.7933 77.7784 36.2141C78.1641 36.6292 78.3569 37.148 78.3569 37.7707C78.3569 38.3933 78.1641 38.915 77.7784 39.3359ZM75.2275 38.9208C75.4847 39.2321 75.8295 39.3878 76.2619 39.3878C76.6943 39.3878 77.0362 39.2321 77.2875 38.9208C77.5388 38.6037 77.6644 38.2203 77.6644 37.7707C77.6644 37.321 77.5388 36.9405 77.2875 36.6292C77.0362 36.3179 76.6943 36.1622 76.2619 36.1622C75.8295 36.1622 75.4847 36.3208 75.2275 36.6378C74.9763 36.9492 74.8506 37.3268 74.8506 37.7707C74.8506 38.2203 74.9763 38.6037 75.2275 38.9208Z" fill="#464646"/>
<path d="M83.7502 39.8634H83.0928V36.586L81.7165 39.8634H81.4711L80.0861 36.586V39.8634H79.4287V35.6866H80.2965L81.5938 38.7824L82.8736 35.6866H83.7502V39.8634Z" fill="#464646"/>
<path d="M91.0467 39.8634H90.2052L88.68 37.9869L87.9787 38.67V39.8634H87.3213V35.6866H87.9787V37.909L90.2052 35.6866H91.038L89.1621 37.5804L91.0467 39.8634Z" fill="#464646"/>
<path d="M93.9103 39.9672C93.3142 39.9672 92.8379 39.7221 92.4814 39.2321V41.4545H91.824V35.6866H92.4814V36.3092C92.6392 36.0902 92.8438 35.9143 93.095 35.7817C93.3463 35.6491 93.6181 35.5828 93.9103 35.5828C94.4713 35.5828 94.9242 35.7817 95.269 36.1795C95.6196 36.5715 95.7949 37.1019 95.7949 37.7707C95.7949 38.4394 95.6196 38.9727 95.269 39.3705C94.9242 39.7683 94.4713 39.9672 93.9103 39.9672ZM93.7437 39.3878C94.1586 39.3878 94.4888 39.2379 94.7342 38.9381C94.9797 38.6325 95.1024 38.2434 95.1024 37.7707C95.1024 37.2979 94.9797 36.9117 94.7342 36.6119C94.4888 36.3121 94.1586 36.1622 93.7437 36.1622C93.4924 36.1622 93.247 36.2285 93.0074 36.3611C92.7736 36.488 92.5983 36.6436 92.4814 36.8281V38.7133C92.5983 38.9035 92.7736 39.0649 93.0074 39.1975C93.247 39.3244 93.4924 39.3878 93.7437 39.3878Z" fill="#464646"/>
<path d="M100.145 39.8634H99.4876V39.3878C99.1311 39.774 98.6636 39.9672 98.0851 39.9672C97.6936 39.9672 97.3488 39.8432 97.0507 39.5953C96.7527 39.3474 96.6037 39.0102 96.6037 38.5835C96.6037 38.1454 96.7498 37.8081 97.042 37.5718C97.34 37.3296 97.6877 37.2086 98.0851 37.2086C98.687 37.2086 99.1545 37.3988 99.4876 37.7793V37.027C99.4876 36.7503 99.3883 36.5341 99.1896 36.3784C98.9909 36.2228 98.7338 36.1449 98.4182 36.1449C97.9215 36.1449 97.489 36.3381 97.1209 36.7243L96.8141 36.2746C97.264 35.8134 97.828 35.5828 98.5058 35.5828C98.9909 35.5828 99.3853 35.6981 99.6892 35.9287C99.9931 36.1593 100.145 36.5139 100.145 36.9924V39.8634ZM98.3218 39.5002C98.8477 39.5002 99.2363 39.3272 99.4876 38.9813V38.1944C99.2363 37.8485 98.8477 37.6756 98.3218 37.6756C98.0179 37.6756 97.7666 37.762 97.5679 37.935C97.3751 38.1022 97.2786 38.3212 97.2786 38.5922C97.2786 38.8574 97.3751 39.0765 97.5679 39.2494C97.7666 39.4166 98.0179 39.5002 98.3218 39.5002Z" fill="#464646"/>
<path d="M103.33 39.9672C102.705 39.9672 102.196 39.7596 101.805 39.3445C101.413 38.9237 101.217 38.3991 101.217 37.7707C101.217 37.1423 101.413 36.6205 101.805 36.2055C102.196 35.7904 102.705 35.5828 103.33 35.5828C103.985 35.5828 104.502 35.825 104.882 36.3092L104.443 36.707C104.174 36.3438 103.815 36.1622 103.365 36.1622C102.921 36.1622 102.564 36.3121 102.296 36.6119C102.033 36.9117 101.901 37.2979 101.901 37.7707C101.901 38.2434 102.033 38.6325 102.296 38.9381C102.564 39.2379 102.921 39.3878 103.365 39.3878C103.809 39.3878 104.169 39.2062 104.443 38.843L104.882 39.2408C104.502 39.725 103.985 39.9672 103.33 39.9672Z" fill="#464646"/>
<path d="M109.169 39.3359C108.789 39.7567 108.284 39.9672 107.653 39.9672C107.021 39.9672 106.513 39.7567 106.127 39.3359C105.747 38.915 105.558 38.3933 105.558 37.7707C105.558 37.148 105.747 36.6292 106.127 36.2141C106.513 35.7933 107.021 35.5828 107.653 35.5828C108.284 35.5828 108.789 35.7933 109.169 36.2141C109.555 36.6292 109.748 37.148 109.748 37.7707C109.748 38.3933 109.555 38.915 109.169 39.3359ZM106.618 38.9208C106.875 39.2321 107.22 39.3878 107.653 39.3878C108.085 39.3878 108.427 39.2321 108.678 38.9208C108.929 38.6037 109.055 38.2203 109.055 37.7707C109.055 37.321 108.929 36.9405 108.678 36.6292C108.427 36.3179 108.085 36.1622 107.653 36.1622C107.22 36.1622 106.875 36.3208 106.618 36.6378C106.367 36.9492 106.241 37.3268 106.241 37.7707C106.241 38.2203 106.367 38.6037 106.618 38.9208Z" fill="#464646"/>
<path d="M112.248 39.8634H111.591V36.2573H110.364V35.6866H113.484V36.2573H112.248V39.8634Z" fill="#464646"/>
<path d="M114.346 35.6866H115.004V37.3037H116.59C117.011 37.3037 117.338 37.4277 117.572 37.6756C117.806 37.9177 117.923 38.2203 117.923 38.5835C117.923 38.9467 117.803 39.2523 117.563 39.5002C117.329 39.7423 117.005 39.8634 116.59 39.8634H114.346V35.6866ZM116.52 37.8744H115.004V39.2926H116.52C116.754 39.2926 116.932 39.2292 117.055 39.1024C117.183 38.9698 117.248 38.7969 117.248 38.5835C117.248 38.3702 117.183 38.2002 117.055 38.0733C116.932 37.9407 116.754 37.8744 116.52 37.8744ZM119.273 39.8634H118.615V35.6866H119.273V39.8634Z" fill="#464646"/>
</g>
<defs>
<clipPath id="clip0_207:5656">
<rect width="120" height="48" fill="white"/>
</clipPath>
</defs>
</svg>
